<?xml version="1.0" encoding="UTF-8"?>
<svg id="Laag_2" xmlns="http://www.w3.org/2000/svg" viewBox="0 0 22.93 22.93">
  <defs>
    <style>
      .cls-1 {
        fill: #f6b101;
      }

      .cls-2 {
        fill: #e61d5c;
      }

      .cls-3 {
        fill: #3abeea;
      }

      .cls-4 {
        fill: #37af75;
      }
    </style>
  </defs>
  <g id="Laag_1-2" data-name="Laag_1">
    <g>
      <path class="cls-2" d="M2.77,13.66L13.66,2.77c.97-.97.36-2.62-1.02-2.76-.01,0-.03,0-.04,0-.47-.05-.93.14-1.27.48L.48,11.33c-.33.33-.52.8-.48,1.27,0,.01,0,.03,0,.04.14,1.37,1.78,1.99,2.76,1.02Z"/>
      <path class="cls-3" d="M20.17,9.28l-10.89,10.89c-.97.97-.36,2.62,1.02,2.76.01,0,.03,0,.04,0,.47.05.93-.14,1.27-.48l10.85-10.85c.33-.33.52-.8.48-1.27,0-.01,0-.03,0-.04-.14-1.37-1.78-1.99-2.76-1.02Z"/>
      <path class="cls-4" d="M6.56,1.05c-2.42,1.14-4.37,3.09-5.51,5.51L6.56,1.05Z"/>
      <path class="cls-4" d="M16.37,21.89c2.42-1.14,4.37-3.09,5.51-5.51l-5.51,5.51Z"/>
      <path class="cls-1" d="M19.62,3.34s-.02-.02-.02-.02c-.63-.63-1.66-.62-2.29,0L3.32,17.31c-.63.63-.64,1.66,0,2.29,0,0,.02.02.02.02.63.63,1.66.62,2.29,0l13.99-13.99c.63-.63.64-1.66,0-2.29Z"/>
    </g>
  </g>
</svg>